<svg xmlns="http://www.w3.org/2000/svg" version="1.1" xmlns:xlink="http://www.w3.org/1999/xlink" xmlns:svgjs="http://svgjs.dev/svgjs" width="64" height="64"><svg width="64" height="64" viewBox="0 0 64 64" fill="none" xmlns="http://www.w3.org/2000/svg">
<path d="M31.9997 5.89551C17.5871 5.89551 5.89575 17.5868 5.89575 32.0498C5.89575 46.5128 17.5871 58.2042 31.9997 58.2042C46.4123 58.2042 58.1036 46.5128 58.1036 32.0498C58.1036 17.5868 46.4123 5.89551 31.9997 5.89551ZM50.7965 43.338C48.9824 43.3884 46.8658 43.2876 45.2028 42.8341C41.3729 41.8262 40.0627 40.516 40.0627 40.516L37.1398 36.4845C37.1398 36.4845 36.7871 36.0813 37.2406 35.7286L37.8454 35.2246C38.5005 34.6703 38.8028 33.8136 38.6517 32.9569C38.6517 32.9065 38.6013 32.8057 38.6013 32.7553C38.6013 32.705 38.6013 32.705 38.5509 32.6546L38.3493 31.8987C38.1981 31.3443 38.7021 31.2435 38.7021 31.2435L43.4391 29.7821C43.4391 29.7821 45.1021 29.379 48.7808 30.8908C50.4438 31.5963 52.3084 32.7553 53.8706 33.8136C53.5682 37.2908 52.5099 40.516 50.7965 43.338ZM10.1792 33.9648C11.6406 32.8561 13.4044 31.6971 15.017 31.0924C18.6958 29.6309 20.5603 29.9333 20.5603 29.9333L25.2973 31.4451C25.2973 31.4451 25.8013 31.5459 25.6501 32.1002L25.4485 32.7553V32.8057L25.3981 32.9065C25.1965 33.8136 25.5493 34.7711 26.2548 35.3254C26.3052 35.3758 26.3556 35.4262 26.4564 35.4262L26.9603 35.779C27.4139 36.1317 27.0611 36.5349 27.0611 36.5349L24.1383 40.5664C24.1383 40.5664 23.0296 41.8766 19.1997 42.8845C17.4359 43.338 15.269 43.4892 13.4044 43.5396C11.5902 40.7679 10.4816 37.4924 10.1792 33.9648ZM10.0784 31.8987C10.0784 27.4136 11.4391 23.2813 13.7572 19.8042C15.017 23.5333 17.0832 25.7506 17.6375 26.3553C18.1414 26.9601 18.1414 27.4136 18.091 27.6656C17.9902 27.8672 17.6879 28.2199 16.9824 28.4215C16.1761 28.5727 13.2532 29.379 10.0784 31.8987ZM36.6863 34.0656C36.3839 34.1664 36.0816 34.0152 35.9808 33.7128C35.88 33.4105 36.0312 33.1081 36.3335 33.0073C36.6359 32.9065 36.9383 33.0577 37.0391 33.3601C37.1398 33.6624 36.9887 33.9648 36.6863 34.0656ZM31.6469 36.3837C31.8989 36.1821 32.2517 36.2829 32.4028 36.4845C32.6044 36.7365 32.5036 37.0892 32.302 37.2404C32.0501 37.442 31.6973 37.3412 31.5461 37.1396C31.3446 36.8876 31.395 36.5349 31.6469 36.3837ZM29.5808 31.9994C29.5808 30.6388 30.6895 29.5805 31.9997 29.5805C33.3603 29.5805 34.4186 30.6892 34.4186 31.9994C34.4186 33.3601 33.3099 34.4183 31.9997 34.4183C30.6895 34.4183 29.5808 33.3601 29.5808 31.9994ZM28.5225 28.1191C28.5225 27.8168 28.7745 27.5648 29.0769 27.5648C29.3792 27.5648 29.6312 27.8168 29.6312 28.1191C29.6312 28.4215 29.3792 28.6735 29.0769 28.6735C28.7745 28.6735 28.5225 28.4215 28.5225 28.1191ZM34.8721 28.6735C34.5698 28.6735 34.3178 28.4215 34.3178 28.1191C34.3178 27.8168 34.5698 27.5648 34.8721 27.5648C35.1745 27.5648 35.4265 27.8168 35.4265 28.1191C35.3761 28.4215 35.1745 28.6735 34.8721 28.6735ZM27.9682 33.8136C27.8674 34.116 27.565 34.2672 27.2627 34.1664C26.9603 34.0656 26.8091 33.7632 26.9099 33.4609C27.0107 33.1585 27.3131 33.0073 27.6154 33.1081C27.8674 33.2089 28.069 33.5113 27.9682 33.8136ZM53.921 31.4451C50.7461 29.127 47.7729 28.4719 47.017 28.3207C46.2611 28.1191 46.0091 27.716 45.9084 27.5144C45.858 27.2624 45.9084 26.8089 46.4123 26.2546C46.9666 25.6498 48.8816 23.3317 50.0406 19.4514C52.4091 22.8782 53.8202 27.0105 53.921 31.4451ZM48.7808 17.8388C48.2265 19.5522 47.4706 21.5176 46.5131 22.979C44.3461 26.305 42.6328 27.1113 42.6328 27.1113L37.8958 28.5727C37.8958 28.5727 37.3918 28.7742 37.2406 28.2199L36.9383 27.464C36.6359 26.6577 35.88 26.0026 34.9729 25.9522C34.9225 25.9522 34.8217 25.9522 34.7713 25.9522C34.7209 25.9522 34.7209 25.9522 34.6706 25.9522H33.9146C33.3099 25.9522 33.3603 25.3979 33.3603 25.3979V20.4089C33.3603 20.4089 33.4611 18.6955 35.9808 15.6215C37.1398 14.2105 38.8028 12.7994 40.2643 11.6404C43.5902 13.001 46.5131 15.1176 48.7808 17.8388ZM37.9965 10.8845C34.8217 13.253 33.3603 15.8735 32.9572 16.579C32.554 17.2845 32.1005 17.3853 31.8989 17.3853C31.6469 17.3349 31.2438 17.1837 30.8406 16.579C30.4375 15.8735 28.7745 13.3538 25.3981 11.0861C27.4643 10.4309 29.6816 10.0782 31.9997 10.0782C34.0658 10.0278 36.0816 10.3302 37.9965 10.8845ZM23.4832 11.7412C24.995 12.7994 26.6076 14.1097 27.7162 15.4703C30.2359 18.5443 30.4879 20.4089 30.4879 20.4089V25.3979C30.4879 25.3979 30.5383 25.9522 29.9335 25.9522H29.1272C27.817 25.9522 26.8091 27.0105 26.8091 28.2703L26.7587 28.3711C26.5572 28.9254 26.1036 28.7239 26.1036 28.7239L21.3666 27.212C21.3666 27.212 19.8044 26.6073 17.6375 23.2309C16.68 21.7191 15.8233 19.653 15.1682 17.9396C17.3855 15.2687 20.258 13.1522 23.4832 11.7412ZM14.7146 45.5553C18.6454 45.505 21.3666 44.2451 22.1225 43.9427C22.828 43.6404 23.2816 43.7916 23.4832 43.8924C23.6343 44.0435 23.8863 44.4467 23.8359 45.1522C23.7351 45.9585 23.6343 48.9821 24.995 52.812C20.9131 51.4514 17.3351 48.8813 14.7146 45.5553ZM26.9603 53.4168C26.3556 51.7034 25.8517 49.6876 25.7509 47.9239C25.5493 43.9427 26.406 42.3302 26.406 42.3302L29.3288 38.2987C29.3288 38.2987 29.5808 37.8451 30.0847 38.1979L30.7398 38.6514C31.4454 39.105 32.4028 39.1553 33.2091 38.7018C33.2595 38.6514 33.3099 38.601 33.4107 38.601C33.4611 38.601 33.4611 38.5506 33.4611 38.5506L34.1162 38.0971C34.5698 37.7443 34.8721 38.1979 34.8721 38.1979L37.795 42.2294C37.795 42.2294 38.7021 43.6404 38.4501 47.6215C38.3493 49.4357 37.8454 51.5522 37.291 53.3664C35.5776 53.7695 33.8139 54.0215 31.9997 54.0215C30.2863 53.9711 28.5729 53.7695 26.9603 53.4168ZM39.5587 52.6609C40.7178 48.9317 40.365 45.9081 40.3147 45.1018C40.2139 44.2955 40.5162 43.9427 40.7178 43.7916C40.9194 43.6908 41.3729 43.5396 42.028 43.842C42.7839 44.1947 45.606 45.253 49.6375 45.1018C47.1178 48.4782 43.6406 51.149 39.5587 52.6609Z" fill="#04D2BD"></path>
<path d="M32 4.7874C47.0173 4.7874 59.2126 16.9827 59.2126 32C59.2126 47.0173 47.0173 59.2126 32 59.2126C16.9827 59.2126 4.7874 47.0173 4.7874 32C4.7874 16.9827 16.9827 4.7874 32 4.7874ZM32 0C14.3118 0 0 14.3118 0 32C0 49.6882 14.3118 64 32 64C49.6882 64 64 49.6882 64 32C64 14.3118 49.6882 0 32 0Z" fill="#636262"></path>
</svg><style>@media (prefers-color-scheme: light) { :root { filter: none; } }
@media (prefers-color-scheme: dark) { :root { filter: none; } }
</style></svg>