<svg width="140" height="70" viewBox="0 0 140 70" fill="none" xmlns="http://www.w3.org/2000/svg">
<g clip-path="url(#clip0_4183_3268)">
<path d="M1.96244 51.5248C2.53814 52.1005 3.21851 52.5716 4.00356 52.9118C4.7886 53.2519 5.62599 53.4089 6.51571 53.4089H17.3755H22.2428V45.8725H12.0895C11.6447 45.8725 11.2522 45.9248 10.9381 46.0557C10.6241 46.1603 10.3101 46.3174 10.0222 46.5267C9.7344 46.7361 9.47272 46.9454 9.2372 47.2071C8.97552 47.4688 8.71384 47.7304 8.42599 48.0183H17.3755V51.237H8.63533C8.11197 51.237 7.61477 51.1323 7.16991 50.8968C6.72505 50.6613 6.33253 50.3473 6.01851 49.9547C5.70449 49.5622 5.44281 49.0912 5.25963 48.594C5.07646 48.0706 4.97178 47.5211 4.97178 46.9454C4.97178 46.3435 5.07646 45.794 5.25963 45.2968C5.46898 44.7734 5.73066 44.3286 6.04468 43.936C6.3587 43.5435 6.75122 43.2557 7.16991 43.0202C7.5886 42.8108 8.0073 42.68 8.45216 42.68L18.5793 42.7323C19.0241 42.7323 19.4166 42.68 19.7307 42.5491C20.0447 42.4183 20.3587 42.2613 20.6465 42.0519C20.9344 41.8426 21.1961 41.6071 21.4316 41.3454C21.6933 41.0837 21.955 40.7959 22.2428 40.5342H6.54188C5.65216 40.5342 4.81477 40.6912 4.02973 41.0314C3.24468 41.3716 2.56431 41.8426 1.9886 42.4183C1.4129 42.994 0.941875 43.6744 0.601688 44.4594C0.261502 45.2445 0.104492 46.0818 0.104492 46.9716C0.104492 47.8613 0.261502 48.6987 0.601688 49.4837C0.915707 50.2688 1.38674 50.9491 1.96244 51.5248Z" fill="white"/>
<path d="M43.6484 52.6501C43.4129 52.3884 43.1512 52.1529 42.8634 51.9435C42.5755 51.7342 42.2877 51.5772 41.9475 51.4463C41.6335 51.3155 41.241 51.2632 40.7961 51.2632H28.8634V48.0706H41.7381V45.8987H32.3438C31.9251 45.8987 31.5325 45.951 31.2185 46.0557C30.9045 46.1603 30.6167 46.2912 30.355 46.4744C30.0933 46.6575 29.8316 46.8669 29.5961 47.1024C29.3606 47.3379 29.0989 47.5996 28.8372 47.8613V42.7061L40.7699 42.7323C41.2148 42.7323 41.6073 42.68 41.9213 42.5491C42.2353 42.4183 42.5494 42.2613 42.8372 42.0519C43.1251 41.8426 43.3867 41.6071 43.6223 41.3454C43.8839 41.0837 44.1456 40.7959 44.4335 40.5342H23.9961V53.4613H44.4335C44.1718 53.1734 43.8839 52.9118 43.6484 52.6501Z" fill="white"/>
<path d="M58.9308 52.7815C59.2187 52.9385 59.5327 53.0693 59.8467 53.174C60.1607 53.2787 60.4748 53.331 60.815 53.3834C61.1551 53.4095 61.5215 53.4357 61.914 53.4357H66.4673L60.1084 48.2282H62.3327C63.1701 48.2282 63.8766 48.045 64.4523 47.6525C65.028 47.26 65.4467 46.789 65.7346 46.2133C66.0224 45.6376 66.1533 45.0357 66.1533 44.3553C66.1533 43.7011 66.0224 43.0731 65.7346 42.4974C65.4467 41.9217 65.028 41.4506 64.4523 41.0581C63.8766 40.6656 63.1701 40.4824 62.3327 40.4824H45.5327V53.4095H50.4V42.6806H59.6636C60.1346 42.6806 60.5271 42.8376 60.8673 43.1777C61.1813 43.4918 61.3645 43.8843 61.3645 44.3553C61.3645 44.8263 61.2075 45.2189 60.8935 45.5329C60.5794 45.8469 60.1869 46.0301 59.7159 46.0301L59.6897 46.0563H56.9159C56.471 46.0563 56.0262 46.0563 55.5551 46.0301C55.0841 46.0301 54.6393 46.0301 54.1944 46.0824C53.7495 46.1348 53.3308 46.2394 52.9383 46.3964C52.5458 46.5535 52.1794 46.789 51.8654 47.103L50.7925 48.2282H53.3308L58.015 52.1273C58.329 52.4151 58.643 52.6245 58.9308 52.7815Z" fill="white"/>
<path d="M70.7327 43.1772L78.6355 53.4875H81.3831L88.056 42.8632V53.4875H93.3682V40.5603L88.6317 40.5865C87.9775 40.6127 87.3757 40.7697 86.8785 41.0575C86.3813 41.3454 85.9626 41.7641 85.6224 42.2875L81.6186 48.6725L76.2542 42.1828C75.8616 41.6594 75.3906 41.2669 74.8149 40.979C74.2392 40.6912 73.6112 40.5603 72.9046 40.5603L68.3252 40.5342V53.4351H70.7065V43.1772H70.7327Z" fill="white"/>
<path d="M105.798 42.8372L109.357 48.3063H105.694C104.804 48.3587 104.045 48.725 103.417 49.3531L102.37 50.4521H110.77L112.733 53.4876H118.411L110.011 40.5605H103.626L95.2524 53.4876L99.0992 53.4615L105.798 42.8372Z" fill="white"/>
<path d="M122.624 43.1772L133.693 53.4613H139.424V40.5603H137.043V49.6669L130.056 43.4127C129.637 43.0202 129.219 42.68 128.826 42.3136C128.434 41.9734 128.041 41.6594 127.622 41.3977C127.204 41.136 126.759 40.9267 126.262 40.7697C125.764 40.6127 125.215 40.5342 124.561 40.5342H120.269V53.4351H122.65V43.1772H122.624Z" fill="white"/>
<path d="M27.1366 57.5704C26.5609 57.8845 26.1422 58.3293 25.8805 58.8788L21.5889 67.7237L17.9253 59.9256L19.2861 57.0732L17.9515 57.0994C17.3235 57.0994 16.7216 57.2564 16.1721 57.5966C15.6225 57.9106 15.1777 58.3817 14.916 58.9574L10.3889 67.7499L5.75712 57.0994H0.0786133L6.17581 70.0265H12.7702L15.2038 65.6041L17.402 70.0265H23.9964L30.2244 57.0994H28.916C28.288 57.0994 27.7123 57.2564 27.1366 57.5704Z" fill="white"/>
<path d="M46.815 62.4375H40.0112C38.9907 62.4375 38.1533 62.7777 37.4468 63.4843L36.5309 64.4001V57.0469H36.5047H31.6636V69.974H36.5309V64.6095H46.815V69.974H51.6823V57.0469H46.815V62.4375Z" fill="white"/>
<path d="M70.3402 59.2714C70.7851 59.2714 71.1776 59.219 71.4916 59.0882C71.8057 58.9574 72.1197 58.8003 72.4075 58.591C72.6954 58.3817 72.9571 58.1461 73.1926 57.8845C73.4543 57.6228 73.7159 57.3349 74.0038 57.0732H53.5664V70.0003H74.0038C73.7159 69.7125 73.4543 69.4508 73.2187 69.1891C72.9832 68.9274 72.7215 68.6919 72.4337 68.4826C72.1458 68.2732 71.858 68.1162 71.5178 68.0116C71.2038 67.8807 70.8113 67.8284 70.3664 67.8284H58.4337V64.6359H71.3085V62.4639H61.9141C61.4954 62.4639 61.1029 62.5162 60.7888 62.6209C60.4748 62.7256 60.187 62.8564 59.9253 63.0396C59.6636 63.2228 59.4019 63.4321 59.1664 63.6676C58.9309 63.9031 58.6692 64.1648 58.4075 64.4265V59.2714H70.3402Z" fill="white"/>
<path d="M92.6357 59.2714C93.0805 59.2714 93.473 59.219 93.7871 59.0882C94.1011 58.9574 94.4151 58.8003 94.7029 58.591C94.9908 58.3817 95.2525 58.1461 95.488 57.8845C95.7497 57.6228 96.0114 57.3349 96.2992 57.0732H75.8618V70.0003H96.2992C96.0114 69.7125 95.7497 69.4508 95.5142 69.1891C95.2786 68.9274 95.017 68.6919 94.7291 68.4826C94.4413 68.2732 94.1534 68.1162 93.8132 68.0116C93.4992 67.8807 93.1067 67.8284 92.6618 67.8284H80.7291V64.6359H93.6039V62.4639H84.2095C83.7908 62.4639 83.3983 62.5162 83.0842 62.6209C82.7702 62.7256 82.4824 62.8564 82.2207 63.0396C81.959 63.2228 81.6973 63.4321 81.4618 63.6676C81.2263 63.9031 80.9646 64.1648 80.7029 64.4265V59.2714H92.6357Z" fill="white"/>
<path d="M138.299 63.5104C137.959 63.1702 137.566 62.9086 137.122 62.7254C136.677 62.5422 136.206 62.4375 135.682 62.4375H125.922C125.712 62.4375 125.503 62.3852 125.293 62.3067C125.084 62.2282 124.927 62.0973 124.77 61.9665C124.613 61.8095 124.508 61.6525 124.43 61.4431C124.351 61.26 124.299 61.0506 124.299 60.8151C124.299 60.3702 124.456 60.0039 124.77 59.6899C125.084 59.3758 125.477 59.245 125.922 59.245H135.918C136.415 59.245 136.886 59.1665 137.305 58.9833C137.723 58.8001 138.116 58.5385 138.482 58.1721L139.581 57.0992H123.226C122.703 57.0992 122.232 57.2039 121.761 57.3871C121.316 57.5702 120.897 57.8581 120.557 58.1983C120.217 58.5385 119.929 58.931 119.746 59.402C119.536 59.8469 119.458 60.3441 119.458 60.8413C119.458 61.417 119.589 61.9403 119.824 62.4637C120.007 62.8562 120.269 63.2226 120.583 63.5366C120.923 63.8768 121.316 64.1385 121.761 64.3216C122.206 64.5048 122.677 64.6095 123.2 64.6095H132.961C133.17 64.6095 133.379 64.6618 133.589 64.7403C133.772 64.8188 133.955 64.9497 134.112 65.0805C134.269 65.2375 134.374 65.3945 134.452 65.6039C134.531 65.7871 134.583 65.9964 134.583 66.2319C134.583 66.6768 134.426 67.0431 134.112 67.3572C133.798 67.6712 133.406 67.8282 132.961 67.8282H122.991C122.886 67.8282 122.781 67.8543 122.703 67.8543H102.292V57.0469H97.4243V69.974H131.077H135.708C136.232 69.974 136.703 69.8693 137.174 69.6861C137.619 69.5029 138.037 69.2151 138.378 68.8749C138.718 68.5347 139.006 68.1422 139.189 67.6712C139.398 67.2263 139.477 66.7291 139.477 66.2058C139.477 65.6301 139.346 65.1067 139.11 64.5833C138.875 64.1908 138.639 63.8244 138.299 63.5104Z" fill="white"/>
<path d="M16.6169 3.06152C9.1328 3.06152 3.06177 9.13255 3.06177 16.6428C3.06177 24.1531 9.1328 30.2241 16.6169 30.2241C24.101 30.2241 30.172 24.1531 30.172 16.6428C30.172 9.13255 24.101 3.06152 16.6169 3.06152ZM26.3777 22.5045C25.4356 22.5307 24.3365 22.4783 23.473 22.2428C21.4842 21.7195 20.8038 21.0391 20.8038 21.0391L19.2861 18.9456C19.2861 18.9456 19.1029 18.7363 19.3384 18.5531L19.6524 18.2914C19.9926 18.0036 20.1496 17.5587 20.0711 17.1139C20.0711 17.0877 20.0449 17.0354 20.0449 17.0092C20.0449 16.983 20.0449 16.983 20.0188 16.9569L19.9141 16.5643C19.8356 16.2765 20.0973 16.2241 20.0973 16.2241L22.5571 15.4653C22.5571 15.4653 23.4206 15.2559 25.3309 16.041C26.1945 16.4073 27.1627 17.0092 27.9739 17.5587C27.8169 19.3643 27.2674 21.0391 26.3777 22.5045ZM5.28607 17.6372C6.04495 17.0615 6.96083 16.4597 7.79822 16.1456C9.7085 15.3868 10.6767 15.5438 10.6767 15.5438L13.1365 16.3288C13.1365 16.3288 13.3982 16.3811 13.3197 16.669L13.215 17.0092V17.0354L13.1889 17.0877C13.0842 17.5587 13.2674 18.0559 13.6337 18.3438C13.6599 18.3699 13.6861 18.3961 13.7384 18.3961L14.0001 18.5793C14.2356 18.7625 14.0524 18.9718 14.0524 18.9718L12.5347 21.0653C12.5347 21.0653 11.959 21.7456 9.97018 22.269C9.05429 22.5045 7.92906 22.583 6.96083 22.6092C6.01878 21.1699 5.44308 19.469 5.28607 17.6372ZM5.23373 16.5643C5.23373 14.2354 5.94027 12.0896 7.14401 10.284C7.79822 12.2204 8.87111 13.3718 9.15896 13.6858C9.42065 13.9998 9.42065 14.2354 9.39448 14.3662C9.34214 14.4709 9.18513 14.654 8.81878 14.7587C8.40009 14.8372 6.88233 15.2559 5.23373 16.5643ZM19.0506 17.6896C18.8935 17.7419 18.7365 17.6634 18.6842 17.5064C18.6319 17.3494 18.7104 17.1924 18.8674 17.14C19.0244 17.0877 19.1814 17.1662 19.2337 17.3232C19.2861 17.4802 19.2076 17.6372 19.0506 17.6896ZM16.4337 18.8933C16.5646 18.7886 16.7477 18.841 16.8263 18.9456C16.9309 19.0765 16.8786 19.2597 16.7739 19.3382C16.6431 19.4428 16.4599 19.3905 16.3814 19.2858C16.2767 19.155 16.3029 18.9718 16.4337 18.8933ZM15.3608 16.6167C15.3608 15.9101 15.9365 15.3606 16.6169 15.3606C17.3234 15.3606 17.873 15.9363 17.873 16.6167C17.873 17.3232 17.2973 17.8727 16.6169 17.8727C15.9365 17.8727 15.3608 17.3232 15.3608 16.6167ZM14.8113 14.6017C14.8113 14.4447 14.9421 14.3139 15.0992 14.3139C15.2562 14.3139 15.387 14.4447 15.387 14.6017C15.387 14.7587 15.2562 14.8896 15.0992 14.8896C14.9421 14.8896 14.8113 14.7587 14.8113 14.6017ZM18.1085 14.8896C17.9515 14.8896 17.8206 14.7587 17.8206 14.6017C17.8206 14.4447 17.9515 14.3139 18.1085 14.3139C18.2655 14.3139 18.3963 14.4447 18.3963 14.6017C18.3702 14.7587 18.2655 14.8896 18.1085 14.8896ZM14.5234 17.5587C14.4711 17.7157 14.3141 17.7942 14.1571 17.7419C14.0001 17.6896 13.9216 17.5326 13.9739 17.3755C14.0263 17.2185 14.1833 17.14 14.3403 17.1924C14.4711 17.2447 14.5758 17.4017 14.5234 17.5587ZM28.0001 16.3288C26.3515 15.1251 24.8076 14.7849 24.415 14.7064C24.0225 14.6017 23.8917 14.3924 23.8393 14.2877C23.8132 14.1568 23.8393 13.9213 24.101 13.6335C24.3889 13.3195 25.3833 12.1157 25.9851 10.1008C27.215 11.8802 27.9478 14.026 28.0001 16.3288ZM25.3309 9.26339C25.0431 10.1531 24.6506 11.1737 24.1534 11.9326C23.0281 13.6597 22.1384 14.0783 22.1384 14.0783L19.6786 14.8372C19.6786 14.8372 19.4169 14.9419 19.3384 14.654L19.1814 14.2615C19.0244 13.8428 18.6319 13.5026 18.1608 13.4765C18.1347 13.4765 18.0823 13.4765 18.0562 13.4765C18.03 13.4765 18.03 13.4765 18.0038 13.4765H17.6113C17.2973 13.4765 17.3234 13.1886 17.3234 13.1886V10.598C17.3234 10.598 17.3758 9.70825 18.6842 8.11199C19.2861 7.37928 20.1496 6.64657 20.9085 6.0447C22.6356 6.75124 24.1534 7.85031 25.3309 9.26339ZM19.7309 5.65218C18.0823 6.88208 17.3235 8.24283 17.1141 8.60919C16.9048 8.97554 16.6692 9.02788 16.5646 9.02788C16.4337 9.00171 16.2244 8.92321 16.015 8.60919C15.8057 8.24283 14.9421 6.93442 13.1889 5.75685C14.2618 5.41666 15.4132 5.23349 16.6169 5.23349C17.6898 5.20732 18.7365 5.36433 19.7309 5.65218ZM12.1945 6.09704C12.9795 6.64657 13.8169 7.32694 14.3926 8.03349C15.701 9.62975 15.8319 10.598 15.8319 10.598V13.1886C15.8319 13.1886 15.858 13.4765 15.544 13.4765H15.1253C14.4449 13.4765 13.9216 14.026 13.9216 14.6802L13.8954 14.7326C13.7907 15.0204 13.5552 14.9157 13.5552 14.9157L11.0954 14.1307C11.0954 14.1307 10.2842 13.8167 9.15896 12.0634C8.66177 11.2783 8.21691 10.2054 7.87672 9.31573C9.02812 7.92881 10.5197 6.82975 12.1945 6.09704ZM7.64121 23.6559C9.68233 23.6297 11.0954 22.9755 11.4879 22.8185C11.8543 22.6615 12.0898 22.74 12.1945 22.7924C12.273 22.8709 12.4038 23.0802 12.3777 23.4466C12.3253 23.8653 12.273 25.4354 12.9795 27.4241C10.8599 26.7176 9.00195 25.383 7.64121 23.6559ZM14.0001 27.7382C13.6861 26.8484 13.4244 25.8017 13.372 24.8858C13.2674 22.8185 13.7122 21.9811 13.7122 21.9811L15.23 19.8877C15.23 19.8877 15.3608 19.6522 15.6225 19.8354L15.9627 20.0709C16.3291 20.3064 16.8263 20.3326 17.2449 20.097C17.2711 20.0709 17.2973 20.0447 17.3496 20.0447C17.3758 20.0447 17.3758 20.0185 17.3758 20.0185L17.716 19.783C17.9515 19.5998 18.1085 19.8354 18.1085 19.8354L19.6263 21.9288C19.6263 21.9288 20.0973 22.6615 19.9664 24.7288C19.9141 25.6709 19.6524 26.7699 19.3646 27.712C18.4749 27.9213 17.559 28.0522 16.6169 28.0522C15.7272 28.026 14.8375 27.9213 14.0001 27.7382ZM20.5421 27.3456C21.144 25.4092 20.9608 23.8391 20.9347 23.4204C20.8823 23.0017 21.0393 22.8185 21.144 22.74C21.2487 22.6877 21.4842 22.6092 21.8244 22.7662C22.2169 22.9494 23.6823 23.4989 25.7758 23.4204C24.4674 25.1737 22.6618 26.5606 20.5421 27.3456Z" fill="#00F1D8"/>
<path d="M16.6168 2.48598C24.4149 2.48598 30.7477 8.81869 30.7477 16.6168C30.7477 24.415 24.4149 30.7477 16.6168 30.7477C8.81869 30.7477 2.48598 24.415 2.48598 16.6168C2.48598 8.81869 8.81869 2.48598 16.6168 2.48598ZM16.6168 0C7.43178 0 0 7.43178 0 16.6168C0 25.8019 7.43178 33.2336 16.6168 33.2336C25.8019 33.2336 33.2336 25.8019 33.2336 16.6168C33.2336 7.43178 25.8019 0 16.6168 0Z" fill="white"/>
<path d="M51.9963 3.06152C44.5122 3.06152 38.4412 9.13255 38.4412 16.6428C38.4412 24.1531 44.5122 30.2241 51.9963 30.2241C59.4804 30.2241 65.5514 24.1531 65.5514 16.6428C65.5514 9.13255 59.4804 3.06152 51.9963 3.06152ZM61.7309 22.5045C60.7888 22.5307 59.6898 22.4783 58.8262 22.2428C56.8374 21.7195 56.1571 21.0391 56.1571 21.0391L54.6393 18.9456C54.6393 18.9456 54.4561 18.7363 54.6916 18.5531L55.0056 18.2914C55.3458 18.0036 55.5028 17.5587 55.4243 17.1139C55.4243 17.0877 55.3982 17.0354 55.3982 17.0092C55.3982 16.983 55.3982 16.983 55.372 16.9569L55.2673 16.5643C55.1888 16.2765 55.4505 16.2241 55.4505 16.2241L57.9103 15.4653C57.9103 15.4653 58.7739 15.2559 60.6842 16.041C61.5477 16.4073 62.5159 17.0092 63.3271 17.5587C63.1963 19.3643 62.6206 21.0391 61.7309 22.5045ZM40.6393 17.6372C41.3982 17.0615 42.3141 16.4597 43.1514 16.1456C45.0617 15.3868 46.0299 15.5438 46.0299 15.5438L48.4898 16.3288C48.4898 16.3288 48.7514 16.3811 48.6729 16.669L48.5683 17.0092V17.0354L48.5421 17.0877C48.4374 17.5587 48.6206 18.0559 48.987 18.3438C49.0131 18.3699 49.0393 18.3961 49.0916 18.3961L49.3533 18.5793C49.5888 18.7625 49.4057 18.9718 49.4057 18.9718L47.8879 21.0653C47.8879 21.0653 47.3122 21.7456 45.3234 22.269C44.4075 22.5045 43.2823 22.583 42.3141 22.6092C41.3982 21.1699 40.7963 19.469 40.6393 17.6372ZM40.587 16.5643C40.587 14.2354 41.2935 12.0896 42.4972 10.284C43.1514 12.2204 44.2243 13.3718 44.5122 13.6858C44.7739 13.9998 44.7739 14.2354 44.7477 14.3662C44.6954 14.4709 44.5384 14.654 44.172 14.7587C43.7533 14.8372 42.2617 15.2559 40.587 16.5643ZM54.4299 17.6896C54.2729 17.7419 54.1159 17.6634 54.0636 17.5064C54.0113 17.3494 54.0898 17.1924 54.2468 17.14C54.4038 17.0877 54.5608 17.1662 54.6131 17.3232C54.6655 17.4802 54.5608 17.6372 54.4299 17.6896ZM51.8131 18.8933C51.944 18.7886 52.1271 18.841 52.2056 18.9456C52.3103 19.0765 52.258 19.2597 52.1533 19.3382C52.0225 19.4428 51.8393 19.3905 51.7608 19.2858C51.6561 19.155 51.6823 18.9718 51.8131 18.8933ZM50.7141 16.6167C50.7141 15.9101 51.2898 15.3606 51.9701 15.3606C52.6767 15.3606 53.2262 15.9363 53.2262 16.6167C53.2262 17.3232 52.6505 17.8727 51.9701 17.8727C51.2898 17.8727 50.7141 17.3232 50.7141 16.6167ZM50.1907 14.6017C50.1907 14.4447 50.3215 14.3139 50.4785 14.3139C50.6356 14.3139 50.7664 14.4447 50.7664 14.6017C50.7664 14.7587 50.6356 14.8896 50.4785 14.8896C50.3215 14.8896 50.1907 14.7587 50.1907 14.6017ZM53.4617 14.8896C53.3047 14.8896 53.1739 14.7587 53.1739 14.6017C53.1739 14.4447 53.3047 14.3139 53.4617 14.3139C53.6187 14.3139 53.7496 14.4447 53.7496 14.6017C53.7496 14.7587 53.6187 14.8896 53.4617 14.8896ZM49.8767 17.5587C49.8243 17.7157 49.6673 17.7942 49.5103 17.7419C49.3533 17.6896 49.2748 17.5326 49.3271 17.3755C49.3795 17.2185 49.5365 17.14 49.6935 17.1924C49.8505 17.2447 49.929 17.4017 49.8767 17.5587ZM63.3795 16.3288C61.7309 15.1251 60.187 14.7849 59.7944 14.7064C59.4019 14.6017 59.2711 14.3924 59.2187 14.2877C59.1926 14.1568 59.2187 13.9213 59.4804 13.6335C59.7683 13.3195 60.7627 12.1157 61.3645 10.1008C62.5683 11.8802 63.3271 14.026 63.3795 16.3288ZM60.6842 9.26339C60.3963 10.1531 60.0038 11.1737 59.5066 11.9326C58.3813 13.6597 57.4916 14.0783 57.4916 14.0783L55.0318 14.8372C55.0318 14.8372 54.7701 14.9419 54.6916 14.654L54.5346 14.2615C54.3776 13.8428 53.9851 13.5026 53.5141 13.4765C53.4879 13.4765 53.4356 13.4765 53.4094 13.4765C53.3832 13.4765 53.3832 13.4765 53.357 13.4765H52.9645C52.6505 13.4765 52.6767 13.1886 52.6767 13.1886V10.598C52.6767 10.598 52.729 9.70825 54.0374 8.11199C54.6393 7.37928 55.5028 6.64657 56.2617 6.0447C57.9888 6.75124 59.5066 7.85031 60.6842 9.26339ZM55.1103 5.65218C53.4617 6.88208 52.7028 8.24283 52.4935 8.60919C52.2842 8.97554 52.0486 9.02788 51.9178 9.02788C51.787 9.00171 51.5776 8.92321 51.3683 8.60919C51.1589 8.24283 50.2954 6.93442 48.5421 5.75685C49.615 5.41666 50.7664 5.23349 51.9701 5.23349C53.0692 5.20732 54.1159 5.36433 55.1103 5.65218ZM47.5477 6.09704C48.3328 6.64657 49.1701 7.32694 49.7458 8.03349C51.0542 9.62975 51.1851 10.598 51.1851 10.598V13.1886C51.1851 13.1886 51.2113 13.4765 50.8972 13.4765H50.4785C49.7982 13.4765 49.2748 14.026 49.2748 14.6802L49.2486 14.7326C49.144 15.0204 48.9085 14.9157 48.9085 14.9157L46.4486 14.1307C46.4486 14.1307 45.6374 13.8167 44.5122 12.0634C44.015 11.2783 43.5701 10.2054 43.2299 9.31573C44.4075 7.92881 45.8729 6.82975 47.5477 6.09704ZM43.0206 23.6559C45.0617 23.6297 46.4748 22.9755 46.8673 22.8185C47.2337 22.6615 47.4692 22.74 47.5739 22.7924C47.6524 22.8709 47.7832 23.0802 47.7571 23.4466C47.7047 23.8653 47.6524 25.4354 48.3589 27.4241C46.2131 26.7176 44.3813 25.383 43.0206 23.6559ZM49.3795 27.7382C49.0655 26.8484 48.8038 25.8017 48.7514 24.8858C48.6468 22.8185 49.0916 21.9811 49.0916 21.9811L50.6094 19.8877C50.6094 19.8877 50.7402 19.6522 51.0019 19.8354L51.3421 20.0709C51.7085 20.3064 52.2057 20.3326 52.6243 20.097C52.6505 20.0709 52.6767 20.0447 52.729 20.0447C52.7552 20.0447 52.7552 20.0185 52.7552 20.0185L53.0954 19.783C53.3309 19.5998 53.4879 19.8354 53.4879 19.8354L55.0056 21.9288C55.0056 21.9288 55.4767 22.6615 55.3458 24.7288C55.2935 25.6709 55.0318 26.7699 54.744 27.712C53.8542 27.9213 52.9384 28.0522 51.9963 28.0522C51.0804 28.026 50.2169 27.9213 49.3795 27.7382ZM55.9215 27.3456C56.5234 25.4092 56.3402 23.8391 56.3141 23.4204C56.2617 23.0017 56.4187 22.8185 56.5234 22.74C56.6281 22.6877 56.8636 22.6092 57.2038 22.7662C57.5963 22.9494 59.0617 23.4989 61.1552 23.4204C59.8468 25.1737 58.015 26.5606 55.9215 27.3456Z" fill="#00F1D8"/>
<path d="M51.9962 2.48598C59.7943 2.48598 66.1271 8.81869 66.1271 16.6168C66.1271 24.415 59.7943 30.7477 51.9962 30.7477C44.1981 30.7477 37.8654 24.415 37.8654 16.6168C37.8392 8.81869 44.1981 2.48598 51.9962 2.48598ZM51.9962 0C42.8112 0 35.3794 7.43178 35.3794 16.6168C35.3794 25.8019 42.8112 33.2336 51.9962 33.2336C61.1813 33.2336 68.613 25.8019 68.613 16.6168C68.613 7.43178 61.1551 0 51.9962 0Z" fill="white"/>
<path d="M87.3496 3.06152C79.8655 3.06152 73.7944 9.13255 73.7944 16.6428C73.7944 24.1531 79.8655 30.2241 87.3496 30.2241C94.8337 30.2241 100.905 24.1531 100.905 16.6428C100.905 9.13255 94.8337 3.06152 87.3496 3.06152ZM97.1103 22.5045C96.1683 22.5307 95.0692 22.4783 94.2056 22.2428C92.2169 21.7195 91.5365 21.0391 91.5365 21.0391L90.0187 18.9456C90.0187 18.9456 89.8356 18.7363 90.0711 18.5531L90.3851 18.2914C90.7253 18.0036 90.8823 17.5587 90.8038 17.1139C90.8038 17.0877 90.7776 17.0354 90.7776 17.0092C90.7776 16.983 90.7776 16.983 90.7514 16.9569L90.6468 16.5643C90.5683 16.2765 90.8299 16.2241 90.8299 16.2241L93.2898 15.4653C93.2898 15.4653 94.1533 15.2559 96.0636 16.041C96.9271 16.4073 97.8954 17.0092 98.7066 17.5587C98.5496 19.3643 98 21.0391 97.1103 22.5045ZM75.9926 17.6372C76.7514 17.0615 77.6673 16.4597 78.5047 16.1456C80.415 15.3868 81.3832 15.5438 81.3832 15.5438L83.843 16.3288C83.843 16.3288 84.1047 16.3811 84.0262 16.669L83.9215 17.0092V17.0354L83.8954 17.0877C83.7907 17.5587 83.9739 18.0559 84.3402 18.3438C84.3664 18.3699 84.3926 18.3961 84.4449 18.3961L84.7066 18.5793C84.9421 18.7625 84.7589 18.9718 84.7589 18.9718L83.2412 21.0653C83.2412 21.0653 82.6655 21.7456 80.6767 22.269C79.7608 22.5045 78.6356 22.583 77.6673 22.6092C76.7514 21.1699 76.1496 19.469 75.9926 17.6372ZM75.9664 16.5643C75.9664 14.2354 76.6729 12.0896 77.8767 10.284C78.5309 12.2204 79.6038 13.3718 79.8916 13.6858C80.1533 13.9998 80.1533 14.2354 80.1271 14.3662C80.0748 14.4709 79.9178 14.654 79.5514 14.7587C79.1328 14.8372 77.615 15.2559 75.9664 16.5643ZM89.7832 17.6896C89.6262 17.7419 89.4692 17.6634 89.4169 17.5064C89.3645 17.3494 89.443 17.1924 89.6 17.14C89.757 17.0877 89.9141 17.1662 89.9664 17.3232C90.0187 17.4802 89.9402 17.6372 89.7832 17.6896ZM87.1664 18.8933C87.2972 18.7886 87.4804 18.841 87.5589 18.9456C87.6636 19.0765 87.6113 19.2597 87.5066 19.3382C87.3757 19.4428 87.1926 19.3905 87.1141 19.2858C87.0094 19.155 87.0356 18.9718 87.1664 18.8933ZM86.0935 16.6167C86.0935 15.9101 86.6692 15.3606 87.3496 15.3606C88.0561 15.3606 88.6056 15.9363 88.6056 16.6167C88.6056 17.3232 88.0299 17.8727 87.3496 17.8727C86.643 17.8727 86.0935 17.3232 86.0935 16.6167ZM85.544 14.6017C85.544 14.4447 85.6748 14.3139 85.8318 14.3139C85.9888 14.3139 86.1197 14.4447 86.1197 14.6017C86.1197 14.7587 85.9888 14.8896 85.8318 14.8896C85.6748 14.8896 85.544 14.7587 85.544 14.6017ZM88.815 14.8896C88.658 14.8896 88.5271 14.7587 88.5271 14.6017C88.5271 14.4447 88.658 14.3139 88.815 14.3139C88.972 14.3139 89.1028 14.4447 89.1028 14.6017C89.1028 14.7587 88.972 14.8896 88.815 14.8896ZM85.2561 17.5587C85.2038 17.7157 85.0468 17.7942 84.8898 17.7419C84.7327 17.6896 84.6543 17.5326 84.7066 17.3755C84.7589 17.2185 84.9159 17.14 85.0729 17.1924C85.2038 17.2447 85.2823 17.4017 85.2561 17.5587ZM98.7327 16.3288C97.0842 15.1251 95.5402 14.7849 95.1477 14.7064C94.7552 14.6017 94.6243 14.3924 94.572 14.2877C94.5458 14.1568 94.572 13.9213 94.8337 13.6335C95.1215 13.3195 96.1159 12.1157 96.7178 10.1008C97.9477 11.8802 98.6804 14.026 98.7327 16.3288ZM96.0636 9.26339C95.7757 10.1531 95.3832 11.1737 94.886 11.9326C93.7608 13.6597 92.8711 14.0783 92.8711 14.0783L90.4113 14.8372C90.4113 14.8372 90.1496 14.9419 90.0711 14.654L89.9141 14.2615C89.7571 13.8428 89.3645 13.5026 88.8935 13.4765C88.8673 13.4765 88.815 13.4765 88.7888 13.4765C88.7627 13.4765 88.7627 13.4765 88.7365 13.4765H88.344C88.0299 13.4765 88.0561 13.1886 88.0561 13.1886V10.598C88.0561 10.598 88.1085 9.70825 89.4169 8.11199C90.0187 7.37928 90.8823 6.64657 91.6412 6.0447C93.3683 6.75124 94.886 7.85031 96.0636 9.26339ZM90.4636 5.65218C88.815 6.88208 88.0561 8.24283 87.8468 8.60919C87.6374 8.97554 87.4019 9.02788 87.2972 9.02788C87.1664 9.00171 86.9571 8.92321 86.7477 8.60919C86.5384 8.24283 85.6748 6.93442 83.9215 5.75685C84.9944 5.41666 86.1458 5.23349 87.3496 5.23349C88.4225 5.20732 89.4692 5.36433 90.4636 5.65218ZM82.9271 6.09704C83.7122 6.64657 84.5496 7.32694 85.1253 8.03349C86.4337 9.62975 86.5645 10.598 86.5645 10.598V13.1886C86.5645 13.1886 86.5907 13.4765 86.2767 13.4765H85.858C85.1776 13.4765 84.6542 14.026 84.6542 14.6802L84.6281 14.7326C84.5234 15.0204 84.2879 14.9157 84.2879 14.9157L81.8281 14.1307C81.8281 14.1307 81.0169 13.8167 79.8916 12.0634C79.3944 11.2783 78.9496 10.2054 78.6094 9.31573C79.7608 7.92881 81.2262 6.82975 82.9271 6.09704ZM78.3739 23.6559C80.415 23.6297 81.8281 22.9755 82.2206 22.8185C82.587 22.6615 82.8225 22.74 82.9271 22.7924C83.0056 22.8709 83.1365 23.0802 83.1103 23.4466C83.058 23.8653 83.0056 25.4354 83.7122 27.4241C81.5926 26.7176 79.7346 25.383 78.3739 23.6559ZM84.7327 27.7382C84.4187 26.8484 84.157 25.8017 84.1047 24.8858C84 22.8185 84.4449 21.9811 84.4449 21.9811L85.9627 19.8877C85.9627 19.8877 86.0935 19.6522 86.3552 19.8354L86.6954 20.0709C87.0617 20.3064 87.5589 20.3326 87.9776 20.097C88.0038 20.0709 88.0299 20.0447 88.0823 20.0447L88.1085 20.0185L88.4486 19.783C88.6842 19.5998 88.8412 19.8354 88.8412 19.8354L90.3589 21.9288C90.3589 21.9288 90.8299 22.6615 90.6991 24.7288C90.6468 25.6709 90.3851 26.7699 90.0972 27.712C89.2075 27.9213 88.2916 28.0522 87.3496 28.0522C86.4599 28.026 85.5701 27.9213 84.7327 27.7382ZM91.2748 27.3456C91.8767 25.4092 91.6935 23.8391 91.6673 23.4204C91.615 23.0017 91.772 22.8185 91.8767 22.74C91.9814 22.6877 92.2169 22.6092 92.5571 22.7662C92.9496 22.9494 94.415 23.4989 96.5084 23.4204C95.2 25.1737 93.3944 26.5606 91.2748 27.3456Z" fill="#00F1D8"/>
<path d="M87.3495 2.48598C95.1476 2.48598 101.48 8.81869 101.48 16.6168C101.48 24.415 95.1476 30.7477 87.3495 30.7477C79.5514 30.7477 73.2186 24.415 73.2186 16.6168C73.2186 8.81869 79.5514 2.48598 87.3495 2.48598ZM87.3495 0C78.1644 0 70.7327 7.43178 70.7327 16.6168C70.7327 25.8019 78.1644 33.2336 87.3495 33.2336C96.5345 33.2336 103.966 25.8019 103.966 16.6168C103.966 7.43178 96.5345 0 87.3495 0Z" fill="white"/>
<path d="M122.703 3.06152C115.219 3.06152 109.148 9.13255 109.148 16.6428C109.148 24.1531 115.219 30.2241 122.703 30.2241C130.187 30.2241 136.258 24.1531 136.258 16.6428C136.258 9.13255 130.187 3.06152 122.703 3.06152ZM132.464 22.5045C131.522 22.5307 130.422 22.4783 129.559 22.2428C127.57 21.7195 126.89 21.0391 126.89 21.0391L125.372 18.9456C125.372 18.9456 125.189 18.7363 125.424 18.5531L125.738 18.2914C126.079 18.0036 126.236 17.5587 126.157 17.1139C126.157 17.0877 126.131 17.0354 126.131 17.0092C126.131 16.983 126.131 16.983 126.105 16.9569L126 16.5643C125.922 16.2765 126.183 16.2241 126.183 16.2241L128.643 15.4653C128.643 15.4653 129.507 15.2559 131.417 16.041C132.28 16.4073 133.249 17.0092 134.06 17.5587C133.929 19.3643 133.353 21.0391 132.464 22.5045ZM111.372 17.6372C112.131 17.0615 113.047 16.4597 113.884 16.1456C115.794 15.3868 116.763 15.5438 116.763 15.5438L119.222 16.3288C119.222 16.3288 119.484 16.3811 119.406 16.669L119.301 17.0092V17.0354L119.275 17.0877C119.17 17.5587 119.353 18.0559 119.72 18.3438C119.746 18.3699 119.772 18.3961 119.824 18.3961L120.086 18.5793C120.322 18.7625 120.138 18.9718 120.138 18.9718L118.621 21.0653C118.621 21.0653 118.045 21.7456 116.056 22.269C115.14 22.5045 114.015 22.583 113.047 22.6092C112.131 21.1699 111.529 19.469 111.372 17.6372ZM111.32 16.5643C111.32 14.2354 112.026 12.0896 113.23 10.284C113.884 12.2204 114.957 13.3718 115.245 13.6858C115.507 13.9998 115.507 14.2354 115.48 14.3662C115.428 14.4709 115.271 14.654 114.905 14.7587C114.486 14.8372 112.968 15.2559 111.32 16.5643ZM125.163 17.6896C125.006 17.7419 124.849 17.6634 124.796 17.5064C124.744 17.3494 124.822 17.1924 124.979 17.14C125.136 17.0877 125.293 17.1662 125.346 17.3232C125.398 17.4802 125.293 17.6372 125.163 17.6896ZM122.546 18.8933C122.677 18.7886 122.86 18.841 122.938 18.9456C123.043 19.0765 122.991 19.2597 122.886 19.3382C122.755 19.4428 122.572 19.3905 122.493 19.2858C122.389 19.155 122.415 18.9718 122.546 18.8933ZM121.447 16.6167C121.447 15.9101 122.022 15.3606 122.703 15.3606C123.409 15.3606 123.959 15.9363 123.959 16.6167C123.959 17.3232 123.383 17.8727 122.703 17.8727C122.022 17.8727 121.447 17.3232 121.447 16.6167ZM120.923 14.6017C120.923 14.4447 121.054 14.3139 121.211 14.3139C121.368 14.3139 121.499 14.4447 121.499 14.6017C121.499 14.7587 121.368 14.8896 121.211 14.8896C121.028 14.8896 120.923 14.7587 120.923 14.6017ZM124.194 14.8896C124.037 14.8896 123.907 14.7587 123.907 14.6017C123.907 14.4447 124.037 14.3139 124.194 14.3139C124.351 14.3139 124.482 14.4447 124.482 14.6017C124.482 14.7587 124.351 14.8896 124.194 14.8896ZM120.609 17.5587C120.557 17.7157 120.4 17.7942 120.243 17.7419C120.086 17.6896 120.008 17.5326 120.06 17.3755C120.112 17.2185 120.269 17.14 120.426 17.1924C120.583 17.2447 120.662 17.4017 120.609 17.5587ZM134.112 16.3288C132.464 15.1251 130.92 14.7849 130.527 14.7064C130.135 14.6017 130.004 14.3924 129.951 14.2877C129.925 14.1568 129.951 13.9213 130.213 13.6335C130.501 13.3195 131.495 12.1157 132.097 10.1008C133.301 11.8802 134.06 14.026 134.112 16.3288ZM131.417 9.26339C131.129 10.1531 130.736 11.1737 130.239 11.9326C129.114 13.6597 128.224 14.0783 128.224 14.0783L125.765 14.8372C125.765 14.8372 125.503 14.9419 125.424 14.654L125.267 14.2615C125.11 13.8428 124.718 13.5026 124.247 13.4765C124.221 13.4765 124.168 13.4765 124.142 13.4765C124.116 13.4765 124.116 13.4765 124.09 13.4765H123.697C123.383 13.4765 123.409 13.1886 123.409 13.1886V10.598C123.409 10.598 123.462 9.70825 124.77 8.11199C125.372 7.37928 126.236 6.64657 126.994 6.0447C128.722 6.75124 130.239 7.85031 131.417 9.26339ZM125.843 5.65218C124.194 6.88208 123.436 8.24283 123.226 8.60919C123.017 8.97554 122.781 9.02788 122.677 9.02788C122.546 9.00171 122.336 8.92321 122.127 8.60919C121.918 8.24283 121.054 6.93442 119.301 5.75685C120.374 5.41666 121.525 5.23349 122.729 5.23349C123.802 5.20732 124.849 5.36433 125.843 5.65218ZM118.28 6.09704C119.065 6.64657 119.903 7.32694 120.479 8.03349C121.787 9.62975 121.918 10.598 121.918 10.598V13.1886C121.918 13.1886 121.944 13.4765 121.63 13.4765H121.211C120.531 13.4765 120.008 14.026 120.008 14.6802L119.981 14.7326C119.877 15.0204 119.641 14.9157 119.641 14.9157L117.181 14.1307C117.181 14.1307 116.37 13.8167 115.245 12.0634C114.748 11.2783 114.303 10.2054 113.963 9.31573C115.14 7.92881 116.606 6.82975 118.28 6.09704ZM113.753 23.6559C115.794 23.6297 117.208 22.9755 117.6 22.8185C117.966 22.6615 118.202 22.74 118.307 22.7924C118.385 22.8709 118.516 23.0802 118.49 23.4466C118.437 23.8653 118.385 25.4354 119.092 27.4241C116.946 26.7176 115.114 25.383 113.753 23.6559ZM120.112 27.7382C119.798 26.8484 119.536 25.8017 119.484 24.8858C119.379 22.8185 119.824 21.9811 119.824 21.9811L121.342 19.8877C121.342 19.8877 121.473 19.6522 121.735 19.8354L122.075 20.0709C122.441 20.3064 122.938 20.3326 123.357 20.097C123.383 20.0709 123.409 20.0447 123.462 20.0447L123.488 20.0185L123.828 19.783C124.064 19.5998 124.221 19.8354 124.221 19.8354L125.738 21.9288C125.738 21.9288 126.209 22.6615 126.079 24.7288C126.026 25.6709 125.765 26.7699 125.477 27.712C124.587 27.9213 123.671 28.0522 122.729 28.0522C121.813 28.026 120.95 27.9213 120.112 27.7382ZM126.654 27.3456C127.256 25.4092 127.073 23.8391 127.047 23.4204C126.994 23.0017 127.151 22.8185 127.256 22.74C127.361 22.6877 127.596 22.6092 127.936 22.7662C128.329 22.9494 129.794 23.4989 131.888 23.4204C130.553 25.1737 128.748 26.5606 126.654 27.3456Z" fill="#00F1D8"/>
<path d="M122.729 2.48598C130.527 2.48598 136.86 8.81869 136.86 16.6168C136.86 24.415 130.527 30.7477 122.729 30.7477C114.931 30.7477 108.598 24.415 108.598 16.6168C108.572 8.81869 114.905 2.48598 122.729 2.48598ZM122.729 0C113.544 0 106.112 7.43178 106.112 16.6168C106.112 25.8019 113.544 33.2336 122.729 33.2336C131.914 33.2336 139.346 25.8019 139.346 16.6168C139.346 7.43178 131.888 0 122.729 0Z" fill="white"/>
</g>
<defs>
<clipPath id="clip0_4183_3268">
<rect width="140" height="70" fill="white"/>
</clipPath>
</defs>
</svg>
